<svg width="305" height="320" viewBox="0 0 305 320" fill="none" xmlns="http://www.w3.org/2000/svg">
    <path d="M106.947 257.971C109.189 257.971 111.617 254.233 112.551 252.364C124.226 259.373 128.899 256.57 128.899 257.971C128.899 259.093 130.144 260.931 130.767 261.71C130.767 266.071 131.047 275.354 132.168 277.597C133.569 280.4 140.107 286.475 142.909 288.811C145.151 290.68 146.957 296.444 147.58 299.091L149.448 315.446C149.759 317.471 150.662 321.147 151.783 319.651C165.326 305.633 162.991 293.017 163.458 283.671C163.925 274.326 172.332 273.859 174.2 271.522C176.068 269.186 175.601 266.382 175.134 257.037C183.354 256.289 189.456 252.987 191.48 251.43C195.06 256.414 203.622 266.289 209.227 265.915C216.232 265.448 222.77 267.317 226.974 270.588C231.177 273.859 241.918 289.279 242.852 288.811C243.786 288.344 243.786 286.942 244.253 275.728C244.627 266.756 242.852 259.529 241.918 257.037C241.14 255.012 238.462 250.402 233.979 248.159C229.495 245.916 228.063 241.928 227.908 240.215C228.063 236.477 228.281 228.159 227.908 224.795C227.534 221.431 230.243 220.589 231.644 220.589C234.757 221.991 240.984 223.673 240.984 219.188C240.984 213.58 244.253 213.58 246.589 212.646C248.924 211.711 253.127 215.917 258.731 216.384C264.335 216.851 277.879 210.309 284.885 209.375C291.89 208.44 305.434 214.048 304.967 211.711C304.5 209.375 296.56 191.619 282.549 190.684C268.539 189.749 266.671 186.946 263.868 179.002C261.066 171.059 254.528 172.928 250.325 172.928C251.259 165.919 250.325 161.713 250.325 154.237C254.528 153.769 266.204 155.171 270.407 142.088C273.769 131.621 283.328 125.266 287.687 123.397C293.758 121.995 305.714 118.817 304.967 117.322C290.956 107.977 280.681 107.977 273.676 108.444C266.671 108.911 257.33 119.191 249.858 114.518C243.319 107.042 240.05 106.107 235.38 106.107C232.578 100.499 233.512 102.369 228.375 96.2948C241.451 83.2111 242.385 79.0057 242.852 73.8657C243.319 68.7257 240.05 61.7166 241.451 51.9038C242.852 42.0911 252.193 36.4838 250.792 34.147C228.842 38.352 222.77 51.9038 222.303 56.1093C221.836 60.3148 218.1 65.922 212.029 66.8566C205.957 67.7911 200.353 68.7257 197.084 72.9311C194.282 70.5948 183.54 63.1184 172.332 63.1184C172.332 45.8293 172.332 45.362 169.063 40.6893C164.859 36.9511 154.585 27.1393 152.717 21.532C150.849 15.9247 152.717 -0.897111 150.849 0.0374357C126.563 25.7375 138.706 41.6248 138.706 46.7648C138.706 51.9048 132.635 53.7739 130.767 56.5775C129.272 58.8204 129.833 62.4963 130.3 64.0539C126.719 64.0539 117.41 65.2688 108.817 70.1284C96.2069 54.7084 90.6026 59.3811 81.2621 57.512C71.9217 55.643 60.2461 35.0815 58.378 34.147C56.5099 33.2124 57.9109 56.1088 59.312 60.7816C60.7131 65.4543 59.312 68.2579 69.1195 76.6689C78.927 85.0798 76.5919 87.4161 77.993 93.958C75.6579 96.7616 72.3887 100.033 69.5865 106.107C62.1142 107.229 57.1326 112.805 55.5758 115.453C53.8634 113.739 47.9166 110.967 37.8289 113.583C18.681 122.462 16.8129 112.182 0 112.182C22.4171 145.358 25.6863 130.405 35.4938 140.218C39.23 151.433 44.3673 154.236 53.7077 154.236C52.5869 159.843 53.2407 168.722 53.7077 172.46C54.1748 173.083 54.1748 174.236 50.4386 173.862C35.4938 173.862 35.4938 177.6 29.4225 189.749C23.3512 201.898 6.07131 206.571 0.467024 208.907C25.2193 221.991 37.8289 210.309 42.9662 208.907C48.1035 207.505 52.7737 206.571 59.312 213.113C60.7131 220.589 68.1855 220.589 70.9876 219.187C75.1908 226.664 77.5259 225.729 77.993 228.066C78.46 230.402 77.0589 232.271 76.1249 233.673C75.1908 235.075 71.9217 234.607 67.7185 240.682C63.5152 252.364 68.1842 256.102 67.2501 266.849C66.3161 277.596 51.8383 288.344 56.5086 286.007C61.1788 283.671 82.1949 284.138 84.997 273.858C87.7992 263.578 92.9364 260.307 96.2056 258.906C99.4748 257.504 104.145 257.971 106.947 257.971Z" fill="url(#paint0_radial_8_126)"/>
    <circle cx="153" cy="160" r="92" fill="url(#paint1_radial_8_126)"/>
    <path d="M99 203V196.4H102.159C104.891 196.4 106.818 196.178 107.938 195.733C109.058 195.289 109.73 194.667 109.954 193.867C110.178 193.067 110.29 192.178 110.29 191.2V127.733C110.29 126.711 110.156 125.911 109.887 125.333C109.663 124.711 108.991 124.267 107.871 124C106.751 123.733 104.847 123.6 102.159 123.6H99V117C101.912 117 105.183 117.022 108.812 117.067C112.44 117.111 115.868 117.133 119.094 117.133C119.362 117.133 120.438 117.133 122.319 117.133C124.246 117.089 126.329 117.067 128.569 117.067C130.854 117.022 132.646 117 133.945 117V123.6H130.72C127.987 123.6 126.038 123.756 124.873 124.067C123.753 124.378 123.081 124.889 122.857 125.6C122.633 126.267 122.521 127.222 122.521 128.467V154.667H167.479V127.933C167.479 125.756 166.897 124.489 165.732 124.133C164.612 123.778 162.439 123.6 159.213 123.6H155.988V117C159.258 117.044 162.484 117.089 165.665 117.133C168.846 117.133 171.87 117.133 174.737 117.133C174.961 117.133 176.103 117.133 178.164 117.133C180.27 117.089 182.577 117.067 185.086 117.067C187.595 117.022 189.566 117 191 117V123.6H187.841C185.153 123.6 183.249 123.756 182.129 124.067C181.009 124.333 180.315 124.778 180.046 125.4C179.822 126.022 179.71 126.867 179.71 127.933V190.8C179.71 192.044 179.732 193.089 179.777 193.933C179.867 194.733 180.449 195.356 181.524 195.8C182.645 196.2 184.75 196.4 187.841 196.4H191V203C187.998 203 185.064 202.978 182.196 202.933C179.374 202.889 175.969 202.867 171.982 202.867C168.577 202.867 165.665 202.889 163.245 202.933C160.826 202.978 158.407 203 155.988 203V196.4H159.213C161.946 196.4 163.873 196.2 164.993 195.8C166.158 195.356 166.852 194.733 167.076 193.933C167.345 193.133 167.479 192.178 167.479 191.067V161.8H122.521V191.467C122.521 194.044 123.058 195.511 124.134 195.867C125.209 196.222 127.404 196.4 130.72 196.4H133.945V203C131.481 203 129.084 202.978 126.755 202.933C124.425 202.889 121.49 202.867 117.951 202.867C113.919 202.867 110.492 202.889 107.669 202.933C104.847 202.978 101.957 203 99 203Z" fill="url(#paint2_linear_8_126)"/>
    <path d="M205.932 203C202.826 203 200.152 202.4 197.911 201.199C195.689 199.998 193.982 198.319 192.789 196.162C191.596 193.985 191 191.451 191 188.561C191 185.631 191.607 183.076 192.82 180.899C194.034 178.721 195.741 177.032 197.941 175.832C200.142 174.611 202.703 174 205.623 174C208.585 174 211.135 174.6 213.274 175.801C215.413 176.981 217.059 178.701 218.211 180.96C219.383 183.199 219.979 185.895 220 189.049L218.149 189.599H196.306C196.348 192.855 197.304 195.409 199.176 197.261C201.068 199.113 203.556 200.039 206.641 200.039C208.78 200.039 210.652 199.622 212.256 198.787C213.861 197.933 215.043 196.528 215.804 194.575H219.537C218.715 197.363 217.1 199.469 214.694 200.894C212.287 202.298 209.367 203 205.932 203ZM196.337 186.943H215.002C214.755 183.829 213.82 181.387 212.195 179.617C210.59 177.846 208.421 176.961 205.685 176.961C203.073 176.961 200.944 177.856 199.299 179.647C197.674 181.438 196.687 183.87 196.337 186.943Z" fill="url(#paint3_linear_8_126)"/>
    <defs>
        <radialGradient id="paint0_radial_8_126" cx="0" cy="0" r="1" gradientUnits="userSpaceOnUse" gradientTransform="translate(152.5 160) rotate(90) scale(160 152.5)">
            <stop offset="0.634615" stop-color="#E7A23B"/>
            <stop offset="1" stop-color="#E12295"/>
        </radialGradient>
        <radialGradient id="paint1_radial_8_126" cx="0" cy="0" r="1" gradientUnits="userSpaceOnUse" gradientTransform="translate(153 160) rotate(90) scale(92)">
            <stop stop-color="#181A1D"/>
            <stop offset="1" stop-color="#090909"/>
        </radialGradient>
        <linearGradient id="paint2_linear_8_126" x1="145" y1="117" x2="145" y2="203" gradientUnits="userSpaceOnUse">
            <stop stop-color="#FEFEFE"/>
            <stop offset="1" stop-color="#989898"/>
        </linearGradient>
        <linearGradient id="paint3_linear_8_126" x1="205.5" y1="174" x2="205.5" y2="203" gradientUnits="userSpaceOnUse">
            <stop stop-color="#FEF4F4"/>
            <stop offset="1" stop-color="#989292"/>
        </linearGradient>
    </defs>
</svg>
