<svg width="393" height="324" viewBox="0 0 393 324" fill="none" xmlns="http://www.w3.org/2000/svg">
    <path d="M146.947 257.971C149.189 257.971 151.617 254.233 152.551 252.364C164.226 259.373 168.899 256.57 168.899 257.971C168.899 259.093 170.144 260.931 170.767 261.71C170.767 266.071 171.047 275.354 172.168 277.597C173.569 280.4 180.107 286.475 182.909 288.811C185.151 290.68 186.957 296.444 187.58 299.091L189.448 315.446C189.759 317.471 190.662 321.147 191.783 319.651C205.326 305.633 202.991 293.017 203.458 283.671C203.925 274.326 212.332 273.859 214.2 271.522C216.068 269.186 215.601 266.382 215.134 257.037C223.354 256.289 229.456 252.987 231.48 251.43C235.06 256.414 243.622 266.289 249.227 265.915C256.232 265.448 262.77 267.317 266.974 270.588C271.177 273.859 281.918 289.279 282.852 288.811C283.786 288.344 283.786 286.942 284.253 275.728C284.627 266.756 282.852 259.529 281.918 257.037C281.14 255.012 278.462 250.402 273.979 248.159C269.495 245.916 268.063 241.928 267.908 240.215C268.063 236.477 268.281 228.159 267.908 224.795C267.534 221.431 270.243 220.589 271.644 220.589C274.757 221.991 280.984 223.673 280.984 219.188C280.984 213.58 284.253 213.58 286.589 212.646C288.924 211.711 293.127 215.917 298.731 216.384C304.335 216.851 317.879 210.309 324.885 209.375C331.89 208.44 345.434 214.048 344.967 211.711C344.5 209.375 336.56 191.619 322.549 190.684C308.539 189.749 306.671 186.946 303.868 179.002C301.066 171.059 294.528 172.928 290.325 172.928C291.259 165.919 290.325 161.713 290.325 154.237C294.528 153.769 306.204 155.171 310.407 142.088C313.769 131.621 323.328 125.266 327.687 123.397C333.758 121.995 345.714 118.817 344.967 117.322C330.956 107.977 320.681 107.977 313.676 108.444C306.671 108.911 297.33 119.191 289.858 114.518C283.319 107.042 280.05 106.107 275.38 106.107C272.578 100.499 273.512 102.369 268.375 96.2948C281.451 83.2111 282.385 79.0057 282.852 73.8657C283.319 68.7257 280.05 61.7166 281.451 51.9038C282.852 42.0911 292.193 36.4838 290.792 34.147C268.842 38.352 262.77 51.9038 262.303 56.1093C261.836 60.3148 258.1 65.922 252.029 66.8566C245.957 67.7911 240.353 68.7257 237.084 72.9311C234.282 70.5948 223.54 63.1184 212.332 63.1184C212.332 45.8293 212.332 45.362 209.063 40.6893C204.859 36.9511 194.585 27.1393 192.717 21.532C190.849 15.9247 192.717 -0.897111 190.849 0.0374357C166.563 25.7375 178.706 41.6248 178.706 46.7648C178.706 51.9048 172.635 53.7739 170.767 56.5775C169.272 58.8204 169.833 62.4963 170.3 64.0539C166.719 64.0539 157.41 65.2688 148.817 70.1284C136.207 54.7084 130.603 59.3811 121.262 57.512C111.922 55.643 100.246 35.0815 98.378 34.147C96.5099 33.2124 97.9109 56.1088 99.312 60.7816C100.713 65.4543 99.312 68.2579 109.12 76.6689C118.927 85.0798 116.592 87.4161 117.993 93.958C115.658 96.7616 112.389 100.033 109.587 106.107C102.114 107.229 97.1326 112.805 95.5758 115.453C93.8634 113.739 87.9166 110.967 77.8289 113.583C58.681 122.462 56.8129 112.182 40 112.182C62.4171 145.358 65.6863 130.405 75.4938 140.218C79.23 151.433 84.3673 154.236 93.7077 154.236C92.5869 159.843 93.2407 168.722 93.7077 172.46C94.1748 173.083 94.1748 174.236 90.4386 173.862C75.4938 173.862 75.4938 177.6 69.4225 189.749C63.3512 201.898 46.0713 206.571 40.467 208.907C65.2193 221.991 77.8289 210.309 82.9662 208.907C88.1035 207.505 92.7737 206.571 99.312 213.113C100.713 220.589 108.185 220.589 110.988 219.187C115.191 226.664 117.526 225.729 117.993 228.066C118.46 230.402 117.059 232.271 116.125 233.673C115.191 235.075 111.922 234.607 107.718 240.682C103.515 252.364 108.184 256.102 107.25 266.849C106.316 277.596 91.8383 288.344 96.5086 286.007C101.179 283.671 122.195 284.138 124.997 273.858C127.799 263.578 132.936 260.307 136.206 258.906C139.475 257.504 144.145 257.971 146.947 257.971Z" fill="url(#paint0_radial_8_126)"/>
    <circle cx="193" cy="160" r="92" fill="url(#paint1_radial_8_126)"/>
    <path d="M139 203V196.4H142.159C144.891 196.4 146.818 196.178 147.938 195.733C149.058 195.289 149.73 194.667 149.954 193.867C150.178 193.067 150.29 192.178 150.29 191.2V127.733C150.29 126.711 150.156 125.911 149.887 125.333C149.663 124.711 148.991 124.267 147.871 124C146.751 123.733 144.847 123.6 142.159 123.6H139V117C141.912 117 145.183 117.022 148.812 117.067C152.44 117.111 155.868 117.133 159.094 117.133C159.362 117.133 160.438 117.133 162.319 117.133C164.246 117.089 166.329 117.067 168.569 117.067C170.854 117.022 172.646 117 173.945 117V123.6H170.72C167.987 123.6 166.038 123.756 164.873 124.067C163.753 124.378 163.081 124.889 162.857 125.6C162.633 126.267 162.521 127.222 162.521 128.467V154.667H207.479V127.933C207.479 125.756 206.897 124.489 205.732 124.133C204.612 123.778 202.439 123.6 199.213 123.6H195.988V117C199.258 117.044 202.484 117.089 205.665 117.133C208.846 117.133 211.87 117.133 214.737 117.133C214.961 117.133 216.103 117.133 218.164 117.133C220.27 117.089 222.577 117.067 225.086 117.067C227.595 117.022 229.566 117 231 117V123.6H227.841C225.153 123.6 223.249 123.756 222.129 124.067C221.009 124.333 220.315 124.778 220.046 125.4C219.822 126.022 219.71 126.867 219.71 127.933V190.8C219.71 192.044 219.732 193.089 219.777 193.933C219.867 194.733 220.449 195.356 221.524 195.8C222.645 196.2 224.75 196.4 227.841 196.4H231V203C227.998 203 225.064 202.978 222.196 202.933C219.374 202.889 215.969 202.867 211.982 202.867C208.577 202.867 205.665 202.889 203.245 202.933C200.826 202.978 198.407 203 195.988 203V196.4H199.213C201.946 196.4 203.873 196.2 204.993 195.8C206.158 195.356 206.852 194.733 207.076 193.933C207.345 193.133 207.479 192.178 207.479 191.067V161.8H162.521V191.467C162.521 194.044 163.058 195.511 164.134 195.867C165.209 196.222 167.404 196.4 170.72 196.4H173.945V203C171.481 203 169.084 202.978 166.755 202.933C164.425 202.889 161.49 202.867 157.951 202.867C153.919 202.867 150.492 202.889 147.669 202.933C144.847 202.978 141.957 203 139 203Z" fill="url(#paint2_linear_8_126)"/>
    <path d="M245.932 203C242.826 203 240.152 202.4 237.911 201.199C235.689 199.998 233.982 198.319 232.789 196.162C231.596 193.985 231 191.451 231 188.561C231 185.631 231.607 183.076 232.82 180.899C234.034 178.721 235.741 177.032 237.941 175.832C240.142 174.611 242.703 174 245.623 174C248.585 174 251.135 174.6 253.274 175.801C255.413 176.981 257.059 178.701 258.211 180.96C259.383 183.199 259.979 185.895 260 189.049L258.149 189.599H236.306C236.348 192.855 237.304 195.409 239.176 197.261C241.068 199.113 243.556 200.039 246.641 200.039C248.78 200.039 250.652 199.622 252.256 198.787C253.861 197.933 255.043 196.528 255.804 194.575H259.537C258.715 197.363 257.1 199.469 254.694 200.894C252.287 202.298 249.367 203 245.932 203ZM236.337 186.943H255.002C254.755 183.829 253.82 181.387 252.195 179.617C250.59 177.846 248.421 176.961 245.685 176.961C243.073 176.961 240.944 177.856 239.299 179.647C237.674 181.438 236.687 183.87 236.337 186.943Z" fill="url(#paint3_linear_8_126)"/>
    <mask id="path-5-inside-1_8_126" fill="white">
        <path d="M93.6357 200C117.587 200 137.143 221.492 138.336 248.517C140.981 247.724 143.762 247.299 146.632 247.299C157.539 247.299 167.163 253.406 172.904 262.716C177.824 256.777 184.9 253.052 192.763 253.052C198.841 253.052 204.448 255.278 208.953 259.032C213.257 252.3 220.146 247.939 227.91 247.938C231.976 247.938 235.802 249.134 239.143 251.24C241.63 223.181 262.453 201.278 287.771 201.278C308.19 201.278 325.68 215.524 332.991 235.755C338.727 232.112 345.306 230.041 352.3 230.041C374.593 230.041 392.665 251.075 392.665 277.021C392.665 302.216 375.623 322.778 354.223 323.946V324H36.2461V323.666C15.8288 320.919 0 301.37 0 277.659C0.000205232 252.067 18.4408 231.319 41.1885 231.319C44.8636 231.319 48.4257 231.864 51.8164 232.88C58.2499 213.654 74.5459 200 93.6357 200Z"/>
    </mask>
    <path d="M93.6357 200C117.587 200 137.143 221.492 138.336 248.517C140.981 247.724 143.762 247.299 146.632 247.299C157.539 247.299 167.163 253.406 172.904 262.716C177.824 256.777 184.9 253.052 192.763 253.052C198.841 253.052 204.448 255.278 208.953 259.032C213.257 252.3 220.146 247.939 227.91 247.938C231.976 247.938 235.802 249.134 239.143 251.24C241.63 223.181 262.453 201.278 287.771 201.278C308.19 201.278 325.68 215.524 332.991 235.755C338.727 232.112 345.306 230.041 352.3 230.041C374.593 230.041 392.665 251.075 392.665 277.021C392.665 302.216 375.623 322.778 354.223 323.946V324H36.2461V323.666C15.8288 320.919 0 301.37 0 277.659C0.000205232 252.067 18.4408 231.319 41.1885 231.319C44.8636 231.319 48.4257 231.864 51.8164 232.88C58.2499 213.654 74.5459 200 93.6357 200Z" fill="url(#paint4_radial_8_126)"/>
    <path d="M93.6357 200L93.6358 192H93.6357V200ZM138.336 248.517L130.344 248.869L130.796 259.127L140.632 256.18L138.336 248.517ZM146.632 247.299L146.632 239.299H146.632V247.299ZM172.904 262.716L166.095 266.915L171.949 276.409L179.065 267.819L172.904 262.716ZM192.763 253.052V245.052H192.763L192.763 253.052ZM208.953 259.032L203.832 265.178L210.805 270.988L215.693 263.341L208.953 259.032ZM227.91 247.938V239.938H227.91L227.91 247.938ZM239.143 251.24L234.876 258.007L245.955 264.993L247.111 251.947L239.143 251.24ZM287.771 201.278L287.772 193.278H287.771V201.278ZM332.991 235.755L325.467 238.474L328.859 247.857L337.281 242.508L332.991 235.755ZM352.3 230.041V222.041H352.3L352.3 230.041ZM392.665 277.021L400.665 277.021V277.021H392.665ZM354.223 323.946L353.787 315.958L346.223 316.371V323.946H354.223ZM354.223 324V332H362.223V324H354.223ZM36.2461 324H28.2461V332H36.2461V324ZM36.2461 323.666H44.2461V316.67L37.313 315.737L36.2461 323.666ZM0 277.659L-8 277.659V277.659H0ZM41.1885 231.319V223.319H41.1884L41.1885 231.319ZM51.8164 232.88L49.5201 240.543L56.9437 242.768L59.4029 235.419L51.8164 232.88ZM93.6357 200L93.6357 208C112.381 208 129.296 225.134 130.344 248.869L138.336 248.517L146.328 248.164C144.99 217.851 122.792 192 93.6358 192L93.6357 200ZM138.336 248.517L140.632 256.18C142.55 255.605 144.558 255.299 146.632 255.299V247.299V239.299C142.966 239.299 139.412 239.843 136.04 240.853L138.336 248.517ZM146.632 247.299L146.632 255.299C154.395 255.299 161.606 259.636 166.095 266.915L172.904 262.716L179.714 258.517C172.72 247.176 160.683 239.299 146.632 239.299L146.632 247.299ZM172.904 262.716L179.065 267.819C182.633 263.512 187.533 261.052 192.763 261.052L192.763 253.052L192.763 245.052C182.266 245.052 173.016 250.041 166.744 257.612L172.904 262.716ZM192.763 253.052V261.052C196.828 261.052 200.651 262.528 203.832 265.178L208.953 259.032L214.074 252.886C208.244 248.029 200.855 245.052 192.763 245.052V253.052ZM208.953 259.032L215.693 263.341C218.785 258.506 223.32 255.939 227.91 255.938L227.91 247.938L227.91 239.938C216.971 239.939 207.73 246.093 202.213 254.723L208.953 259.032ZM227.91 247.938V255.938C230.368 255.938 232.727 256.653 234.876 258.007L239.143 251.24L243.409 244.473C238.877 241.615 233.584 239.938 227.91 239.938V247.938ZM239.143 251.24L247.111 251.947C249.313 227.104 267.453 209.278 287.771 209.278V201.278V193.278C257.452 193.278 233.946 219.257 231.174 250.534L239.143 251.24ZM287.771 201.278L287.771 209.278C304.21 209.278 319.079 220.797 325.467 238.474L332.991 235.755L340.515 233.036C332.28 210.251 312.17 193.278 287.772 193.278L287.771 201.278ZM332.991 235.755L337.281 242.508C341.821 239.624 346.925 238.041 352.3 238.041L352.3 230.041L352.3 222.041C343.686 222.041 335.633 224.6 328.702 229.002L332.991 235.755ZM352.3 230.041V238.041C369.078 238.041 384.665 254.311 384.665 277.021H392.665H400.665C400.665 247.838 380.107 222.041 352.3 222.041V230.041ZM392.665 277.021L384.665 277.021C384.665 299.033 369.956 315.076 353.787 315.958L354.223 323.946L354.659 331.934C381.29 330.481 400.665 305.399 400.665 277.021L392.665 277.021ZM354.223 323.946H346.223V324H354.223H362.223V323.946H354.223ZM354.223 324V316H36.2461V324V332H354.223V324ZM36.2461 324H44.2461V323.666H36.2461H28.2461V324H36.2461ZM36.2461 323.666L37.313 315.737C21.5108 313.611 8 298.051 8 277.659H0H-8C-8 304.689 10.1467 328.226 35.1792 331.595L36.2461 323.666ZM0 277.659L8 277.659C8.00018 255.572 23.7193 239.319 41.1885 239.319L41.1885 231.319L41.1884 223.319C13.1623 223.319 -7.99977 248.561 -8 277.659L0 277.659ZM41.1885 231.319V239.319C44.0676 239.319 46.8566 239.745 49.5201 240.543L51.8164 232.88L54.1127 225.217C49.9947 223.983 45.6597 223.319 41.1885 223.319V231.319ZM51.8164 232.88L59.4029 235.419C64.966 218.794 78.6351 208 93.6357 208V200V192C70.4567 192 51.5338 208.515 44.2299 230.341L51.8164 232.88Z" fill="url(#paint5_linear_8_126)" mask="url(#path-5-inside-1_8_126)"/>
    <defs>
        <radialGradient id="paint0_radial_8_126" cx="0" cy="0" r="1" gradientUnits="userSpaceOnUse" gradientTransform="translate(192.5 160) rotate(90) scale(160 152.5)">
            <stop offset="0.634615" stop-color="#E7A23B"/>
            <stop offset="1" stop-color="#E12295"/>
        </radialGradient>
        <radialGradient id="paint1_radial_8_126" cx="0" cy="0" r="1" gradientUnits="userSpaceOnUse" gradientTransform="translate(193 160) rotate(90) scale(92)">
            <stop stop-color="#181A1D"/>
            <stop offset="1" stop-color="#090909"/>
        </radialGradient>
        <linearGradient id="paint2_linear_8_126" x1="185" y1="117" x2="185" y2="203" gradientUnits="userSpaceOnUse">
            <stop stop-color="#FEFEFE"/>
            <stop offset="1" stop-color="#989898"/>
        </linearGradient>
        <linearGradient id="paint3_linear_8_126" x1="245.5" y1="174" x2="245.5" y2="203" gradientUnits="userSpaceOnUse">
            <stop stop-color="#FEF4F4"/>
            <stop offset="1" stop-color="#989292"/>
        </linearGradient>
        <radialGradient id="paint4_radial_8_126" cx="0" cy="0" r="1" gradientUnits="userSpaceOnUse" gradientTransform="translate(196.333 262) rotate(-4.88967) scale(196.333 62)">
            <stop stop-color="#0A0A0A"/>
            <stop offset="1" stop-color="#131416"/>
        </radialGradient>
        <linearGradient id="paint5_linear_8_126" x1="189" y1="240.5" x2="196.333" y2="324" gradientUnits="userSpaceOnUse">
            <stop stop-color="#E7A23B"/>
            <stop offset="1" stop-color="#7C1353"/>
        </linearGradient>
    </defs>
</svg>
